<svg xmlns="http://www.w3.org/2000/svg" xmlns:xlink="http://www.w3.org/1999/xlink" width="1320" height="871.64" viewBox="0 0 1320 871.64"><defs><style>.cls-1{fill:#58595b;}.cls-2{fill:#2e3191;}.cls-10,.cls-11,.cls-2,.cls-3,.cls-4,.cls-5,.cls-6,.cls-7,.cls-8,.cls-9{fill-rule:evenodd;}.cls-3{fill:url(#linear-gradient);}.cls-4{fill:url(#linear-gradient-2);}.cls-5{fill:url(#linear-gradient-3);}.cls-6{fill:url(#linear-gradient-4);}.cls-7{fill:url(#linear-gradient-5);}.cls-8{fill:url(#linear-gradient-6);}.cls-9{fill:url(#linear-gradient-7);}.cls-10{fill:url(#linear-gradient-8);}.cls-11{fill:url(#linear-gradient-9);}</style><linearGradient id="linear-gradient" x1="865.31" y1="637.15" x2="865.31" y2="736.12" gradientUnits="userSpaceOnUse"><stop offset="0" stop-color="#fff"/><stop offset="1" stop-color="#25b0e5"/></linearGradient><linearGradient id="linear-gradient-2" x1="980.93" y1="637.15" x2="980.93" y2="736.12" xlink:href="#linear-gradient"/><linearGradient id="linear-gradient-3" x1="1096.73" y1="637.15" x2="1096.73" y2="736.12" xlink:href="#linear-gradient"/><linearGradient id="linear-gradient-4" x1="729.33" y1="637.15" x2="729.33" y2="736.12" xlink:href="#linear-gradient"/><linearGradient id="linear-gradient-5" x1="489.53" y1="637.91" x2="489.53" y2="736.88" xlink:href="#linear-gradient"/><linearGradient id="linear-gradient-6" x1="605.15" y1="637.91" x2="605.15" y2="736.88" xlink:href="#linear-gradient"/><linearGradient id="linear-gradient-7" x1="339.77" y1="635.63" x2="339.77" y2="734.6" xlink:href="#linear-gradient"/><linearGradient id="linear-gradient-8" x1="116.28" y1="638.48" x2="116.28" y2="732.98" xlink:href="#linear-gradient"/><linearGradient id="linear-gradient-9" x1="1230.07" y1="637.15" x2="1230.07" y2="736.12" xlink:href="#linear-gradient"/></defs><title>Asset 9</title><g id="Layer_2" data-name="Layer 2"><g id="Layer_1-2" data-name="Layer 1"><polygon class="cls-1" points="197.85 870.69 197.85 819.97 217.25 819.97 217.25 815.21 171.57 815.21 171.57 819.97 191.26 819.97 191.26 870.69 197.85 870.69"/><polygon class="cls-1" points="290.72 870.69 290.72 865.92 263.39 865.92 263.39 844.5 288.24 844.5 288.24 839.73 263.39 839.73 263.39 819.97 283.84 819.97 283.84 815.21 256.8 815.21 256.8 870.69 290.72 870.69"/><path class="cls-1" d="M338.3,843a24.63,24.63,0,0,1,1.91-9.88,21.15,21.15,0,0,1,5.45-7.54,24.59,24.59,0,0,1,8.5-4.84A33.92,33.92,0,0,1,365.25,819a54.16,54.16,0,0,1,8,.59,29,29,0,0,1,7.07,1.95l.67-5a35.9,35.9,0,0,0-6.78-1.67,59.66,59.66,0,0,0-9.17-.63,42.59,42.59,0,0,0-13.62,2.06,30.41,30.41,0,0,0-10.51,5.87,27.05,27.05,0,0,0-6.79,9.09A27.67,27.67,0,0,0,331.71,843a28.49,28.49,0,0,0,2.38,11.86,25.77,25.77,0,0,0,6.74,9,30.51,30.51,0,0,0,10.56,5.76,45.17,45.17,0,0,0,13.95,2,53.28,53.28,0,0,0,8.55-.64,27.75,27.75,0,0,0,7.12-2.06l-.57-4.6a18.32,18.32,0,0,1-6.64,2,64.52,64.52,0,0,1-8.55.56,35.06,35.06,0,0,1-11.18-1.67,24.24,24.24,0,0,1-8.51-4.8,20.66,20.66,0,0,1-5.4-7.54A25.18,25.18,0,0,1,338.3,843Z"/><polygon class="cls-1" points="424.38 815.21 424.38 870.69 430.98 870.69 430.98 844.5 464.71 844.5 464.71 870.69 471.3 870.69 471.3 815.21 464.71 815.21 464.71 839.73 430.98 839.73 430.98 815.21 424.38 815.21"/><polygon class="cls-1" points="557.77 864.34 523.27 815.21 514.96 815.21 514.96 870.69 521.55 870.69 521.55 822.35 555.48 870.69 564.37 870.69 564.37 815.21 557.77 815.21 557.77 864.34"/><path class="cls-1" d="M668.89,843a32.85,32.85,0,0,0-2-11.91,24.65,24.65,0,0,0-15.1-14.8,38.92,38.92,0,0,0-24.75,0,24.65,24.65,0,0,0-15.1,14.8,32.85,32.85,0,0,0-2,11.91,32.46,32.46,0,0,0,2,11.86A24.77,24.77,0,0,0,627,869.62a38.92,38.92,0,0,0,24.75,0,24.77,24.77,0,0,0,15.1-14.77,32.46,32.46,0,0,0,2-11.86Zm-6.59,0a27.07,27.07,0,0,1-1.67,9.64,22.16,22.16,0,0,1-4.68,7.54,21.63,21.63,0,0,1-7.22,4.92,25.39,25.39,0,0,1-18.73,0,21.48,21.48,0,0,1-7.21-4.92,22,22,0,0,1-4.69-7.54,28.69,28.69,0,0,1,0-19.29,22.46,22.46,0,0,1,4.69-7.57,21.32,21.32,0,0,1,7.21-5,25.53,25.53,0,0,1,18.73,0,21.46,21.46,0,0,1,7.22,5,22.59,22.59,0,0,1,4.68,7.57A27.13,27.13,0,0,1,662.3,843Z"/><polygon class="cls-1" points="721.15 815.21 714.56 815.21 714.56 870.69 747.91 870.69 747.91 865.92 721.15 865.92 721.15 815.21"/><path class="cls-1" d="M840.4,843a32.85,32.85,0,0,0-2.06-11.91,24.65,24.65,0,0,0-15.1-14.8,38.92,38.92,0,0,0-24.75,0,24.65,24.65,0,0,0-15.1,14.8,32.85,32.85,0,0,0-2,11.91,32.46,32.46,0,0,0,2,11.86,24.77,24.77,0,0,0,15.1,14.77,38.92,38.92,0,0,0,24.75,0,24.77,24.77,0,0,0,15.1-14.77A32.46,32.46,0,0,0,840.4,843Zm-6.6,0a27.07,27.07,0,0,1-1.67,9.64,22,22,0,0,1-4.68,7.54,21.53,21.53,0,0,1-7.22,4.92,25.39,25.39,0,0,1-18.73,0,21.58,21.58,0,0,1-7.21-4.92,21.86,21.86,0,0,1-4.68-7.54,28.53,28.53,0,0,1,0-19.29,22.28,22.28,0,0,1,4.68-7.57,21.42,21.42,0,0,1,7.21-5,25.53,25.53,0,0,1,18.73,0,21.36,21.36,0,0,1,7.22,5,22.43,22.43,0,0,1,4.68,7.57A27.13,27.13,0,0,1,833.8,843Z"/><path class="cls-1" d="M891.12,843a24.76,24.76,0,0,1,1.92-9.92,21,21,0,0,1,5.39-7.54,24.33,24.33,0,0,1,8.51-4.8A35,35,0,0,1,918.26,819a61,61,0,0,1,9.08.67,28.8,28.8,0,0,1,8,2.34l1-4.84a35,35,0,0,0-7.88-2.14,65.45,65.45,0,0,0-10.75-.79,42.59,42.59,0,0,0-13.62,2.06,30.83,30.83,0,0,0-10.51,5.83,26,26,0,0,0-6.74,9.09A28.4,28.4,0,0,0,884.53,843a28.7,28.7,0,0,0,2.39,11.94,25.18,25.18,0,0,0,6.83,9,30.85,30.85,0,0,0,10.75,5.71,47.16,47.16,0,0,0,14.24,2,55.54,55.54,0,0,0,11.09-1,49,49,0,0,0,9.36-2.86v-27H912.82v4.76H932.6v19.12a19.68,19.68,0,0,1-5.64,1.63,53.53,53.53,0,0,1-8.6.6A35.78,35.78,0,0,1,907,865.21a24.21,24.21,0,0,1-8.56-4.8,21.24,21.24,0,0,1-5.44-7.54,24.49,24.49,0,0,1-1.92-9.88Z"/><rect class="cls-1" x="982.75" y="815.21" width="6.59" height="55.48"/><polygon class="cls-1" points="1066.83 870.69 1066.83 865.92 1039.5 865.92 1039.5 844.5 1064.35 844.5 1064.35 839.73 1039.5 839.73 1039.5 819.97 1059.95 819.97 1059.95 815.21 1032.91 815.21 1032.91 870.69 1066.83 870.69"/><path class="cls-1" d="M1148.43,856.64a12.65,12.65,0,0,0-3.65-9.45q-3.63-3.57-11.12-6.58a60.94,60.94,0,0,1-11.88-6.07c-2.63-1.88-3.93-3.88-3.93-6a8,8,0,0,1,3.87-6.9,17.44,17.44,0,0,1,10-2.62,35.25,35.25,0,0,1,8.08.71,27.21,27.21,0,0,1,4.54,1.51l1.14-4.76a36.39,36.39,0,0,0-13.66-2.22,29.27,29.27,0,0,0-8.08,1.07,22.7,22.7,0,0,0-6.54,2.93,14.49,14.49,0,0,0-4.35,4.45,10.42,10.42,0,0,0-1.58,5.52,10.28,10.28,0,0,0,1.58,5.59,17.09,17.09,0,0,0,4.11,4.45,35.44,35.44,0,0,0,5.73,3.53c2.14,1.06,4.32,2,6.55,2.93a62.26,62.26,0,0,1,5.73,2.62,20.65,20.65,0,0,1,3.92,2.62,9,9,0,0,1,2.25,2.9,8.22,8.22,0,0,1,.71,3.45,8.42,8.42,0,0,1-1.1,4.25,10.1,10.1,0,0,1-3.1,3.33,16.06,16.06,0,0,1-4.78,2.18,21.8,21.8,0,0,1-6,.8,36.86,36.86,0,0,1-4.92-.32,34.09,34.09,0,0,1-4.25-.83,26.92,26.92,0,0,1-3.4-1.15,9.25,9.25,0,0,1-2.15-1.2l-.67,5.56q6.21,2.7,15.58,2.7a29.13,29.13,0,0,0,8.36-1.15,23.15,23.15,0,0,0,6.75-3.18,16.19,16.19,0,0,0,4.59-4.76,11,11,0,0,0,1.71-5.91Z"/><path class="cls-2" d="M1300.23,655.65v34.8H1177.84q26.21-11,67.13-11.57V645.44q0-23.58-19-23.58a18.09,18.09,0,0,0-12.84,4.75q-5.11,4.75-5.11,12.67a22.23,22.23,0,0,0,5.63,14.61q-12,12.66-30.09,12.67t-26.75-8.1q-8.62-8.09-8.62-21.12,0-19.71,24.11-32.38t56.31-12.67q32.2,0,51.92,15.14t19.71,48.22Z"/><path class="cls-2" d="M1118,655.65v34.8h-55.26V663.74q0-12.68-6.16-19.88t-17.42-7.22q-11.27,0-21.83,10t-15.13,29.74v14H946.91V663.74q0-12.68-6.16-19.88t-17.42-7.22q-11.26,0-21.82,10.38t-15.14,30.8v12.63H831.11V632.06q0-18.3-12-24.63,13.36-15.13,31.32-15.14t26.4,9q8.45,9,9.5,27.63a65.48,65.48,0,0,1,26.22-27.28,73.19,73.19,0,0,1,36.26-9.33q19.53,0,32.91,10.56t18,30.62q9.15-20.06,26.75-30.62t40.12-10.56q22.53,0,37,16.19T1118,655.65Z"/><path class="cls-2" d="M743.53,663.74q6.35-.71,9.5-4c2.12-2.22,3.17-6.51,3.17-12.84a30.06,30.06,0,0,0-5.45-17.42,17.23,17.23,0,0,0-15-7.92q-9.51,0-17.95,12t-11.27,34.85Zm-92.82,26.71q1.45-39.45,25.6-67.89,25.68-30.27,65.11-30.27,30.27,0,50,19.54t19.71,44.52q0,19.36-9.15,27.81A30.35,30.35,0,0,1,790,690.53l.26-.08Z"/><path class="cls-2" d="M626.39,655.65v34.8H571.13V663.74q0-12.68-6.16-19.88t-17.43-7.22q-11.25,0-21.82,10.38t-15.13,30.8v12.63H455.33V632.06q0-18.3-12-24.63,13.38-15.13,31.33-15.14t26.39,9q8.46,9,9.51,27.63a65.36,65.36,0,0,1,26.22-27.28q16.73-9.33,38.72-9.33T612,608.48q14.43,16.2,14.43,47.17Z"/><path class="cls-2" d="M429,690.45H372.86c-.06-.79-.12-1.61-.18-2.42q-4.94-69-38.72-69-15.13,0-22.71,13.2t-7.56,39.6q0,7.74.71,16.19c0,.81.1,1.62.16,2.42H248.1c0-30.74,8.31-56.8,25-73.35s38.48-24.8,65.46-24.8,48.82,8.26,65.47,24.8S429,659.71,429,690.45Z"/><path class="cls-2" d="M217.69,681.52a62,62,0,0,0-16-20.24A97.49,97.49,0,0,0,157,641.57q23.6-4.92,36.78-18.48T207,589.82q0-31.3-25.87-51.73t-78.31-20.42A298.43,298.43,0,0,0,0,536q9.5,14.43,9.51,38.71V690.45H65.12V666.2h44.7q26.75,0,41.88,11.1a37.11,37.11,0,0,1,11.53,13.15h58.06A55.38,55.38,0,0,0,217.69,681.52ZM138,619.57Q125.65,630,104.89,630h-1.41l-38.36-.34V560.27q15.48-4.59,37.83-4.58t34.85,10.38a32.94,32.94,0,0,1,11.79,19.35,38.48,38.48,0,0,1,.7,7.4Q150.29,609.18,138,619.57Z"/><path class="cls-3" d="M898.75,778.73q-13.38,15.13-32.39,15.14-34.49,0-34.48-41.89V700.21h55.25v53.54Q887.13,772.74,898.75,778.73Z"/><path class="cls-4" d="M1014.2,778.73q-12.69,15.13-32,15.14-34.49,0-34.49-41.89V700.21h55.26v53.54Q1002.93,772.74,1014.2,778.73Z"/><path class="cls-5" d="M1130,778.73q-12.66,15.13-32,15.14-34.52,0-34.5-41.89V700.21h55.26v53.54Q1118.73,772.74,1130,778.73Z"/><path class="cls-6" d="M807.29,748.11q0,16.89-20.06,31.33t-47.16,14.43q-41.9,0-65.29-22.87t-23.41-65.65c0-1.74,0-3.45.09-5.14h54.87v4.61h-.05q2.46,50.68,44,50.68,29.24,0,48.93-22.17Q807.29,736.85,807.29,748.11Z"/><path class="cls-7" d="M523,779.49q-13.4,15.13-32.39,15.14-34.49,0-34.49-41.89V701h55.25v53.54Q511.34,773.5,523,779.49Z"/><path class="cls-8" d="M638.41,779.49q-12.67,15.13-32,15.14-34.49,0-34.5-41.89V701h55.27v53.54Q627.15,773.5,638.41,779.49Z"/><path class="cls-9" d="M430.21,701.51q-.65,44.36-25.15,68.67-25.15,25-65.46,25t-65.29-25q-24.33-24.31-25-68.67h56.46q4.66,66.91,38.56,66.92,30.25,0,30.27-53.14,0-6.37-.53-13.78Z"/><path class="cls-10" d="M223.46,716.67q0,33.09-31.67,54.39c-21.13,14.19-48.82,24.19-83.08,24.19s-59.42-7.89-75.49-17.86S9.11,751.28,9.11,729V698.69H64.72v34.88q0,20.77,44.7,20.76,26.74,0,41.89-10.91t15.13-28.86a34.53,34.53,0,0,0-3.61-15.87H220.9A61.49,61.49,0,0,1,223.46,716.67Z"/><path class="cls-11" d="M1301,745.29V700.21H1178.61a92.91,92.91,0,0,0-10.49,5.14q-28,16-28,42.76,0,21.81,14.43,33.79t38.71,12q32.74,0,54.56-23.23,6.35,23.22,32.38,23.23a47,47,0,0,0,22.7-5.81,49.85,49.85,0,0,0,17.08-14.6Q1301,767.48,1301,745.29Zm-55.26.36q-11.61,13.38-26,13.37Q1200,759,1200,741.77q0-27.79,45.76-30.27Z"/><path class="cls-2" d="M572.19,124.4c-4.47,9.78-11,30-13.56,38.72a357.84,357.84,0,0,0-11.19,54.7l6.36.06h1.81q26.63,0,42.42-13.31t15.8-34.3q0-21-16-34.3-10.23-8.5-25.61-11.57ZM781,197.4c-8.58-8.62-17.23-16.11-27.25-25-4.11-3.67-8.14-6.34-12.37-9.73l-13.32-9.74c-14.72-10.45-34.9-22.21-55-31.9q13.43,19.89,13.42,45.44a60.49,60.49,0,0,1-7.19,29.6,145.94,145.94,0,0,0,21.18,1.37Zm-5.84,108.7c13.69-10.36,29.17-22.88,31.47-27.6,3.18-6.52-2-4.9,2.32-18.78,4.57-14.69,12.28-13.06,4-24.84q-5.94-.45-12.75-.45h-25Zm-73.34,43.52c3-1.33,5.9-2.64,8.61-3.94,3.3-1.57,4.84-1.88,7.85-3.68,2.58-1.56,4.94-2.9,7.18-4.14V234.43H685.59q-23.76,0-28.94-14.9-14.21,9.06-34.25,13.24a125,125,0,0,1,57.32,25.28A79.89,79.89,0,0,1,700.25,284a75.28,75.28,0,0,1,7.9,34.52A76.45,76.45,0,0,1,701.83,349.62ZM544.56,264.37a378.7,378.7,0,0,0,10.56,86.46c3,12.69,6.38,8,14.58,15.79q28.78-1.44,45.93-13.8,19.41-14,19.41-37t-19.41-37.23q-19.41-14.22-53.7-14.21Z"/><path class="cls-2" d="M889.48,159.62c0-5.81-15.68-36-20.73-43.64-4.48-6.79-8.32-12.39-13-18.68C823.11,53.72,772.45,20.49,719.64,7.6c-8.19-2-17.3-3.51-26.82-4.89C656.35-2.56,658.3-.72,644.24,13.34c-9.33,9.32-32.15,36.63-36.33,45.4-2.83,5.94-.26,5.44.07,12.47.17,3.66.16,6.36.35,8.43Q635.07,86,652.55,99.5c28,10.45,65.41,31.1,87.73,47.91,3.43,2.58,6,4.15,9.48,6.85l13.14,10.88c10.64,9.89,24.69,20.93,34.37,32.26h17.78q30.39,0,30.39,24.37a20.84,20.84,0,0,1-1,6.12c6.58-.57,7,.18,10.45-4.83,6.28-9.05,34.55-56.3,34.55-63.44Z"/><path class="cls-2" d="M535.77,217.72a269.93,269.93,0,0,1,6.09-34.86c4.15-16.47,8.83-36.18,15.18-52.08,1.33-3.33,2.39-5.88,3.23-7.9q-3.46-.22-7.15-.22-28.65,0-48.51,5.86v88.91Zm3.93,147.83c2.83-5.73,6.95-1.63,2.16-20.69-5.67-22.56-8.56-51.48-8.6-80.49H504.61v75.81Q504.61,361,539.7,365.55Zm-124.85-130c0,28.85,0,42.17,7.89,70.9a264.14,264.14,0,0,0,10.62,31.29q-.06-1.68-.06-3.39V150.82C422.59,176.56,414.85,208.05,414.85,235.52Z"/><path class="cls-2" d="M580.11,420c0,5.89,33,59.85,37.82,63.06,7.11,4.79,42.63,4.2,53.45,4.2,12.17,0,25.37-2.09,36.12-4.24,38.76-7.75,68.2-22,99.35-43.81a117.29,117.29,0,0,0,11.29-8.88c3.88-3.62,6.76-5.79,10.57-9.61,6.34-6.35,14.39-14.14,20-21.3,3.22-4.1,5.9-7.25,8.92-11.25,19.38-25.73,17.41-24.61,9.37-48.51-4.66-13.86-10.46-29.55-16.92-42.65-10.64-21.62-10.41-16.95-21.83-13.16-11.13,3.69-7.18-2.21-17.32,7.66a291.73,291.73,0,0,1-35.78,29.44v76.82q0,17.1,10.45,22.48-12,13.61-29.13,13.61-31,0-31-37.67V351c-3.61,1.91-7.23,3.76-10.85,5.58-7.39,3.71-15.24,7.19-23.41,10.42a105.6,105.6,0,0,1-23.68,21.25Q633.59,411.06,582,414.81a11,11,0,0,0-1.87,5.18Z"/><path class="cls-2" d="M850.09,269.15c0,3.53,5.61,13.15,7.37,16.65l14.74,33.3c2.21,5.56,3.06,13.46,10.56,13.46,7.87,0,8.66-8.23,10.69-14.29C904.63,284.82,909.13,234.81,901,199c-2.14-9.4-11.49-11.2-16.66-1.33-8,15.28-16.35,25.55-23.17,36.38-2.81,4.46-.78,7.68-1.82,13.56-1.78,10-9.25,18.67-9.25,21.5Z"/><path class="cls-2" d="M472.41,400.83c4.33,7.72,15.15,16.41,19.54,20.85a68.66,68.66,0,0,0,6.2,5.32c2.64,2.23,3.86,3.48,6.71,5.78A241.12,241.12,0,0,0,548.72,461c5.8,2.9,28,13.78,34.27,13.78,3.35,0,7.69-4.34,7.69-7.69,0-4.25-10.53-20.05-13.15-25.29-2.73-5.46-10.3-21.75-14.54-24.84a18.85,18.85,0,0,0-2.27-1.39q-57.51,0-88.31-14.72Z"/><path class="cls-2" d="M496.52,64.5c0,12.61,9.28,9.67,29.81,9.58l5.16.44q10.66-.6,21.41-.6,8.18,0,15.84.38c4.26-4.24,7.13-12.44,23.69-17.66,4.68-1.47,7.7-7.71,12.1-13.83l16.9-21.54c2.84-3.6,4.8-4,4.8-9.61,0-8.46-8.1-7.76-15-6.34-20.41,4.24-37.83,9.56-56.45,18.49a272.17,272.17,0,0,0-31.39,17.62c-4.28,2.82-26.89,18.8-26.89,23.07Z"/></g></g></svg>